#!OML:ASF F:\VICON\USERDATA\INSTALL\rory3\rory3.ASF
:FULLY-SPECIFIED
:DEGREES
19
root -0.6419752836725413 17.683203670834967 -13.638689815899408 -1.4434251713410928 6.873759667474905 -3.886074780741488
lfemur -23.75149373524815 -3.501824276782206 -21.614797986682635
ltibia 40.95960054694761
lfoot -11.770493448433276 -10.71139304339339
ltoes -1.5494360793424402
rfemur -7.638074019281032 -2.109067861983896 27.04960007971789
rtibia 96.09898219985286
rfoot 21.07318365347097 -13.163587860044919
rtoes 16.75528769957672
lowerback 16.497285641361255 1.0708664147480071 2.768765984589477
upperback -0.0810312943617934 2.0672155086433897 1.1520133925428229
thorax -9.314909306352055 0.891517930953763 -0.8248256193138291
lowerneck -18.957094112938254 -5.346233447203205 -1.6914257790619123
upperneck 15.242904182475762 -7.620282112706145 4.051618636700847
head 8.059292829929596 -3.3001633774943206 0.6760134575698125
lclavicle -9.152774339847445e-16 -7.746725139183434e-16
lhumerus -61.08468459399016 -12.545188881431436 100.14098192457654
lradius 104.07298986979939
lwrist 33.45058829796125
lhand -25.856206542779212 0.7974985326453723
lfingers 7.125020000000057
lthumb 0.6846004567303206 30.776111507333685
rclavicle -9.152774339847445e-16 -7.746725139183434e-16
rhumerus -48.454291764413675 14.403487431183397 -101.75298540677781
rradius 104.67298970995884
rwrist -7.877907043840358
rhand -19.72159002324048 40.73908757964961
rfingers 7.125020000000057
rthumb 6.6085599770313035 10.86218764952286
20
root -0.646633214923163 17.474908519565 -12.685890228701599 -1.1420260252044043 6.63226031454453 -2.519608718467231
lfemur -22.372294499709515 -3.797763519914433 -23.298895461057292
ltibia 45.080998918858235
lfoot -17.15248957867879 -7.689816900995311
ltoes 2.0965100648138675
rfemur -13.30770089562047 -3.7861038889492034 23.902404932258893
rtibia 102.40697984232864
rfoot 20.997883706007745 -9.952804036240925
rtoes 15.041689265824779
lowerback 16.84358442334759 1.0303266853965054 0.9001367565176699
upperback 0.15046710622511406 1.6215373637770742 0.8064185324506169
thorax -9.309279333844964 0.7562972140732036 -0.036899578045832326
lowerneck -19.70269059368662 -5.254084256292822 -1.3674709888108474
upperneck 15.087904476578366 -7.553942498628933 3.9693790697038733
head 8.117182437396256 -3.2486040926277644 0.5904328734601846
lclavicle -9.152775159745956e-16 -7.746724997894612e-16
lhumerus -56.908787526497164 -14.232586984702488 100.1769818753987
lradius 104.52998976175591
lwrist 34.90128727926725
lhand -24.961009341551467 0.056301515164708604
lfingers 7.125020000000057
lthumb 1.5492606572760297 30.030412193893127
rclavicle -9.152775159745956e-16 -7.746724997894612e-16
rhumerus -49.23729116922881 13.324788076073016 -101.86498530302357
rradius 101.6549904347325
rwrist -6.520558172247547
rhand -22.246575434986305 37.44369128166227
rfingers 7.125020000000057
rthumb 4.170694571628387 7.504821422413291
21
root -0.3586468158752405 17.15291086449706 -3.920623781490864 1.6574986140517867 5.463698834958054 1.8384694472600303
lfemur -21.23326697609299 -1.1989301958132494 -26.530254234576727
ltibia 50.230707264195445
lfoot -21.776789547862542 -2.2740020599104764
ltoes 2.103104674133177
rfemur -16.712537553975082 -3.8818609407785334 19.916015210121788
rtibia 108.73369339512615
rfoot 14.827221035330583 -6.843743025381229
rtoes 17.095236954386607
lowerback 17.65830380564327 1.7114635333162145 -1.6230954844220749
upperback -0.07560795963467376 1.9399987430754058 -0.524876926336632
thorax -9.779903806678044 0.993737224009107 0.18408152222163654
lowerneck -19.627107704597332 -5.396846069174692 -1.7889347045290185
upperneck 13.728706069117024 -7.609035896362013 4.486293789915082
head 7.778950997350481 -3.3078191799938192 0.8828053124032598
lclavicle -2.9422187668914066e-16 -2.937871586890604e-16
lhumerus -47.6266539801145 -13.8632886591066 98.43411098668193
lradius 106.65153973069206
lwrist 32.77114753646748
lhand -25.338756331564262 4.965024023372834
lfingers 7.125020000000059
lthumb 1.184002358717337 34.864509165272416
rclavicle -2.9422187668914066e-16 -2.937871586890604e-16
rhumerus -42.986422278016015 8.830229064193963 -97.53699724837738
rradius 99.55086368013505
rwrist -12.090737084022997
rhand -20.662431303328365 36.132672186400384
rfingers 7.125020000000059
rthumb 5.699939519089902 7.467488888876627
22
root -0.3370862542076642 17.014624194789906 -6.321163125089825 2.4936693733140665 4.328618086119702 2.628179091457113
lfemur -18.90133797904601 -0.8541406288902165 -27.563216495887467
ltibia 51.93524074309837
lfoot -26.045825127612087 1.7173443565956523
ltoes 0.08336511990983642
rfemur -24.113042667392627 -4.096041613938288 18.369663666695914
rtibia 114.35049956293273
rfoot 12.058362756325668 -5.302550272466685
rtoes 15.884821732513016
lowerback 18.184957222411278 1.6444254561042073 -2.729249547864425
upperback -0.007604399545818041 1.6280680065813855 -0.8151192004812715
thorax -10.033282311662237 0.8878950528621004 0.5596403441920378
lowerneck -20.015636134815967 -5.236420114803948 -1.867488680072103
upperneck 12.869729555988664 -7.402961857413374 4.803950548080092
head 7.5647238052290104 -3.1789693634163827 1.0244362949751842
lclavicle -5.273988750184831e-16 -4.743368277444227e-16
lhumerus -43.323490814667004 -14.881971395439201 98.05192673363611
lradius 105.97543160264075
lwrist 33.12584626790699
lhand -25.118793421092498 4.89586656378907
lfingers 7.125020000000058
lthumb 1.3964166489582548 34.7982531365913
rclavicle -5.273988750184831e-16 -4.743368277444227e-16
rhumerus -45.5197039625112 7.994600269099452 -98.28152300505005
rradius 98.94410769188539
rwrist -13.240803143167533
rhand -20.555739274382113 36.616513949636065
rfingers 7.125020000000058
rthumb 5.802679149230814 7.813360986832445
23
root -0.29318496195028615 16.957973027730397 -6.190162674832852 3.097988876982593 3.8489202571783543 2.9830800185996247
lfemur -15.899353559866887 -0.9298436324357632 -27.9161524192953
ltibia 52.15360078209593
lfoot -28.362167528240914 4.173450726080403
ltoes -2.282205660178021
rfemur -30.9548924616019 -4.735345540498523 17.659464821932822
rtibia 117.50662711948135
rfoot 9.734609571894579 -5.004494256238014
rtoes 12.91745955097577
lowerback 18.432982796180085 1.3503809875848436 -3.3079064702681995
upperback -0.06091347774782652 1.1336176002626195 -0.812365181687625
thorax -10.22045534145994 0.6800716336848902 1.0385570826752177
lowerneck -20.192925684184807 -5.017980457792751 -1.871963994909881
upperneck 12.360374575924645 -7.1193101114024335 4.966192174312967
head 7.4157697942159295 -3.0236243655345723 1.110999871635436
lclavicle -4.577103713556306e-16 -4.2037699480398536e-16
lhumerus -39.43169410865385 -15.920541114475101 97.74215880430631
lradius 106.52225245891289
lwrist 33.31518122485168
lhand -24.969404329713477 4.536878917704733
lfingers 7.125020000000058
lthumb 1.5406931715861234 34.44406665755924
rclavicle -4.577103713556306e-16 -4.2037699480398536e-16
rhumerus -48.00240769938465 8.021145556539407 -98.69099515650154
rradius 100.13649786991027
rwrist -14.136593170509922
rhand -20.233822780013437 36.60011658122502
rfingers 7.125020000000058
rthumb 6.113105245092298 8.066608827967803
24
root -0.2935500992993081 16.98314418358926 -4.49414454185718 3.5726698428573043 3.5098704584810148 2.830701953636829
lfemur -12.55354513937899 -1.1084619507839781 -27.684137372172714
ltibia 50.68610337358956
lfoot -27.87851437643633 4.936418990428993
ltoes -6.076540754241821
rfemur -36.43459916553096 -5.017802110684331 18.186529942206278
rtibia 118.27229586633453
rfoot 7.667531497185253 -5.145652763802422
rtoes 10.533445011115656
lowerback 18.358557558150515 0.9414814208108945 -3.4993346033163
upperback -0.1711564328233081 0.5659263225920731 -0.604585961692355
thorax -10.29774367072476 0.42860147763913964 1.514885064819575
lowerneck -20.220145495418848 -4.706126205573304 -1.835560227214256
upperneck 12.16690726463261 -6.688879336371598 4.843744381322793
head 7.3258063530776525 -2.82057978826937 1.1134605779871536
lclavicle -4.2448230914159265e-16 -3.946483543417113e-16
lhumerus -36.46880783875898 -16.10215056599172 97.41634439342143
lradius 107.93176290121622
lwrist 33.8837181918299
lhand -24.739333166765014 4.473868367735438
lfingers 7.125020000000058
lthumb 1.7627940413875616 34.378454729006776
rclavicle -4.2448230914159265e-16 -3.946483543417113e-16
rhumerus -50.572665584672855 8.0355925351365 -98.75080287527912
rradius 101.2835018308958
rwrist -14.633683184723182
rhand -20.145292908862665 36.296850942522504
rfingers 7.125020000000058
rthumb 6.1987410703687935 8.264674735435829
25
root -0.24920139939197 17.106428072769766 -3.076506644057554 4.304114944242153 3.2567056343482736 2.6608975830209505
lfemur -8.593592017703855 -1.1251398548139542 -27.098682726505537
ltibia 48.36778563655184
lfoot -24.95987772270036 4.299827389275037
ltoes -12.025437933924497
rfemur -40.699178391290154 -4.597416842115315 19.177998475077995
rtibia 116.12307232537648
rfoot 5.516761714726631 -5.688737484676372
rtoes 8.050575678761511
lowerback 18.167482186865538 0.4899760648495133 -3.3477256043475654
upperback -0.31678071433133576 0.0033528026726926674 -0.29073352293350174
thorax -10.302422616805627 0.16790086054938697 1.9679305173314923
lowerneck -20.290180560778623 -4.363347649493393 -1.7848042445945091
upperneck 11.926192272625098 -6.2004752950383395 4.693817211025987
head 7.224281089021817 -2.598982665790295 1.1095041158652836
lclavicle -2.869879746677749e-17 -8.819205714120366e-17
lhumerus -33.931957190883246 -15.846100276949075 96.92906557995003
lradius 110.82913465243975
lwrist 35.34058497072182
lhand -24.2471827439005 4.807744071778469
lfingers 7.12502000000006
lthumb 2.2379995957336387 34.70811841233338
rclavicle -2.869879746677749e-17 -8.819205714120366e-17
rhumerus -52.84704629887493 9.278616780545939 -98.98675089192564
rradius 104.68990058939973
rwrist -15.9810955662842
rhand -19.78783756469046 36.444443638421546
rfingers 7.12502000000006
rthumb 6.543673187282645 9.00226115923596
26
root -0.25047179275810755 17.26435019402172 -1.3183652570308428 4.7521374443867455 2.865813302978259 2.3297650142822453
lfemur -5.1711970691032025 -0.9093448547364636 -26.5273720105587
ltibia 46.10326454260549
lfoot -21.513663730223485 2.2862890777259146
ltoes -18.352479076364634
rfemur -44.06061477860434 -4.042421966852432 20.1801630664463
rtibia 111.75169681206765
rfoot 3.5311213592025203 -5.905769327870902
rtoes 5.574346472109767
lowerback 17.811153055712005 0.052101995270244617 -3.2516024737008014
upperback -0.473914652762644 -0.5256065306257324 0.044615917695394636
thorax -10.287759605193688 -0.0783182074525729 2.3677920729032023
lowerneck -20.266262057325907 -4.005066060288009 -1.7732902593649935
upperneck 11.869482179974655 -5.692028373760201 4.443858767278735
head 7.162488424662982 -2.3716862398006544 1.0849505638459147
lclavicle -1.0539964538016949e-16 -1.47581888111607e-16
lhumerus -32.52961694442827 -15.346867422925278 96.48655694010128
lradius 113.2597192226716
lwrist 36.762796867001875
lhand -24.111798391940685 3.969854734073907
lfingers 7.125020000000059
lthumb 2.3686565660292125 33.86384487015793
rclavicle -1.0539964538016949e-16 -1.47581888111607e-16
rhumerus -55.19927544410056 10.041658319194411 -99.34100162938395
rradius 107.00685977095442
rwrist -17.037450220403038
rhand -19.634549780794334 36.033644300782704
rfingers 7.125020000000059
rthumb 6.691800593296955 9.208985266948142
